<?xml version="1.0" encoding="UTF-8"?>
<svg xmlns="http://www.w3.org/2000/svg" width="1200" height="760" viewBox="0 0 1200 760" role="img" aria-label="agentic-research-template">
<defs>
  <linearGradient id="bg" x1="0" y1="0" x2="1" y2="1">
    <stop offset="0" stop-color="#07101b"/>
    <stop offset="0.55" stop-color="#0b1020"/>
    <stop offset="1" stop-color="#121827"/>
  </linearGradient>
  <radialGradient id="glow" cx="28%" cy="16%" r="78%">
    <stop offset="0" stop-color="#a78bfa" stop-opacity="0.28"/>
    <stop offset="0.58" stop-color="#a78bfa" stop-opacity="0.055"/>
    <stop offset="1" stop-color="#a78bfa" stop-opacity="0"/>
  </radialGradient>
  <filter id="soft" x="-30%" y="-30%" width="160%" height="160%"><feGaussianBlur stdDeviation="12"/></filter>
</defs>
<rect width="1200" height="760" fill="url(#bg)"/>
<rect width="1200" height="760" fill="url(#glow)"/>
<rect x="58" y="58" width="1084" height="644" rx="28" fill="rgba(255,255,255,0.025)" stroke="rgba(255,255,255,0.095)"/>
<rect x="118" y="285" width="144" height="92" rx="14" fill="rgba(255,255,255,0.045)" stroke="#a78bfa" stroke-opacity="0.48"/><path d="M268 331 C325 331, 275 403, 332 403" fill="none" stroke="#a78bfa" stroke-opacity="0.58" stroke-width="4"/><rect x="338" y="357" width="144" height="92" rx="14" fill="rgba(255,255,255,0.045)" stroke="#a78bfa" stroke-opacity="0.48"/><path d="M488 403 C545 403, 495 331, 552 331" fill="none" stroke="#a78bfa" stroke-opacity="0.58" stroke-width="4"/><rect x="558" y="285" width="144" height="92" rx="14" fill="rgba(255,255,255,0.045)" stroke="#a78bfa" stroke-opacity="0.48"/><path d="M708 331 C765 331, 715 403, 772 403" fill="none" stroke="#a78bfa" stroke-opacity="0.58" stroke-width="4"/><rect x="778" y="357" width="144" height="92" rx="14" fill="rgba(255,255,255,0.045)" stroke="#a78bfa" stroke-opacity="0.48"/><path d="M928 403 C985 403, 875 331, 932 331" fill="none" stroke="#a78bfa" stroke-opacity="0.58" stroke-width="4"/><rect x="938" y="285" width="144" height="92" rx="14" fill="rgba(255,255,255,0.045)" stroke="#a78bfa" stroke-opacity="0.48"/><text x="92" y="672" fill="rgba(231,231,234,0.74)" font-family="ui-monospace,SFMono-Regular,Menlo,monospace" font-size="30">agentic-research-template</text>
</svg>