<?xml version="1.0" encoding="UTF-8"?>
<svg xmlns="http://www.w3.org/2000/svg" width="1200" height="760" viewBox="0 0 1200 760" role="img" aria-label="hardware-reliability-field-to-test">
<defs>
  <linearGradient id="bg" x1="0" y1="0" x2="1" y2="1">
    <stop offset="0" stop-color="#07101b"/>
    <stop offset="0.55" stop-color="#0b1020"/>
    <stop offset="1" stop-color="#121827"/>
  </linearGradient>
  <radialGradient id="glow" cx="28%" cy="16%" r="78%">
    <stop offset="0" stop-color="#f59e0b" stop-opacity="0.28"/>
    <stop offset="0.58" stop-color="#f59e0b" stop-opacity="0.055"/>
    <stop offset="1" stop-color="#f59e0b" stop-opacity="0"/>
  </radialGradient>
  <filter id="soft" x="-30%" y="-30%" width="160%" height="160%"><feGaussianBlur stdDeviation="12"/></filter>
</defs>
<rect width="1200" height="760" fill="url(#bg)"/>
<rect width="1200" height="760" fill="url(#glow)"/>
<rect x="58" y="58" width="1084" height="644" rx="28" fill="rgba(255,255,255,0.025)" stroke="rgba(255,255,255,0.095)"/>
<path d="M150 160 C360 204.63967169634998, 760 92.28571282699704, 1050 160" fill="none" stroke="#f59e0b" stroke-width="4"/><path d="M150 184 C360 558.8987031299621, 760 386.58274602144957, 1050 184" fill="none" stroke="rgba(255,255,255,0.12)" stroke-width="2"/><path d="M150 208 C360 368.0766992177814, 760 350.52082350477576, 1050 208" fill="none" stroke="rgba(255,255,255,0.12)" stroke-width="2"/><path d="M150 232 C360 596.4996327552944, 760 353.967352360487, 1050 232" fill="none" stroke="rgba(255,255,255,0.12)" stroke-width="2"/><path d="M150 256 C360 269.9431854765862, 760 183.5607605613768, 1050 256" fill="none" stroke="#f59e0b" stroke-width="4"/><path d="M150 280 C360 197.7287716139108, 760 166.3259907439351, 1050 280" fill="none" stroke="rgba(255,255,255,0.12)" stroke-width="2"/><path d="M150 304 C360 372.49839446507394, 760 292.8023230843246, 1050 304" fill="none" stroke="rgba(255,255,255,0.12)" stroke-width="2"/><path d="M150 328 C360 349.5872812811285, 760 452.1298163384199, 1050 328" fill="none" stroke="rgba(255,255,255,0.12)" stroke-width="2"/><path d="M150 352 C360 265.2960542868823, 760 437.51721860840917, 1050 352" fill="none" stroke="#f59e0b" stroke-width="4"/><path d="M150 376 C360 231.05950814671814, 760 170.553261898458, 1050 376" fill="none" stroke="rgba(255,255,255,0.12)" stroke-width="2"/><path d="M150 400 C360 131.01687668822706, 760 469.4248170219362, 1050 400" fill="none" stroke="rgba(255,255,255,0.12)" stroke-width="2"/><path d="M150 424 C360 506.3087841961533, 760 471.7694479227066, 1050 424" fill="none" stroke="rgba(255,255,255,0.12)" stroke-width="2"/><path d="M150 448 C360 83.05888908915222, 760 480.1164669729769, 1050 448" fill="none" stroke="#f59e0b" stroke-width="4"/><path d="M150 472 C360 544.9435402918607, 760 589.1596553102136, 1050 472" fill="none" stroke="rgba(255,255,255,0.12)" stroke-width="2"/><path d="M150 496 C360 178.01057911477983, 760 101.95637477561831, 1050 496" fill="none" stroke="rgba(255,255,255,0.12)" stroke-width="2"/><path d="M150 520 C360 497.4787319544703, 760 429.06186051666737, 1050 520" fill="none" stroke="rgba(255,255,255,0.12)" stroke-width="2"/><path d="M150 544 C360 396.1318516265601, 760 253.0840458162129, 1050 544" fill="none" stroke="#f59e0b" stroke-width="4"/><path d="M150 568 C360 564.117577644065, 760 213.6833332106471, 1050 568" fill="none" stroke="rgba(255,255,255,0.12)" stroke-width="2"/><text x="92" y="672" fill="rgba(231,231,234,0.74)" font-family="ui-monospace,SFMono-Regular,Menlo,monospace" font-size="30">hardware-reliability-field-to-test</text>
</svg>