<?xml version="1.0" encoding="UTF-8"?>
<svg xmlns="http://www.w3.org/2000/svg" width="1200" height="760" viewBox="0 0 1200 760" role="img" aria-label="random-matrix-visualizer">
<defs>
  <linearGradient id="bg" x1="0" y1="0" x2="1" y2="1">
    <stop offset="0" stop-color="#07101b"/>
    <stop offset="0.55" stop-color="#0b1020"/>
    <stop offset="1" stop-color="#121827"/>
  </linearGradient>
  <radialGradient id="glow" cx="28%" cy="16%" r="78%">
    <stop offset="0" stop-color="#a78bfa" stop-opacity="0.28"/>
    <stop offset="0.58" stop-color="#a78bfa" stop-opacity="0.055"/>
    <stop offset="1" stop-color="#a78bfa" stop-opacity="0"/>
  </radialGradient>
  <filter id="soft" x="-30%" y="-30%" width="160%" height="160%"><feGaussianBlur stdDeviation="12"/></filter>
</defs>
<rect width="1200" height="760" fill="url(#bg)"/>
<rect width="1200" height="760" fill="url(#glow)"/>
<rect x="58" y="58" width="1084" height="644" rx="28" fill="rgba(255,255,255,0.025)" stroke="rgba(255,255,255,0.095)"/>
<circle cx="406.4008560916382" cy="386.36311114565586" r="1.8026396991685034" fill="#a78bfa" opacity="0.31423167497385296"/><circle cx="740.5605566070573" cy="219.4539320078912" r="2.4843151703476907" fill="#a78bfa" opacity="0.4205981286475435"/><circle cx="670.7274600789726" cy="341.4104771476243" r="3.0099802492186427" fill="#a78bfa" opacity="0.26713889580685646"/><circle cx="804.1399322810304" cy="380.8395910695192" r="4.688071091100573" fill="#a78bfa" opacity="0.2629972478980198"/><circle cx="641.6576216978962" cy="601.6260207446535" r="3.819186174310744" fill="#a78bfa" opacity="0.19638528876472264"/><circle cx="800.0525444117305" cy="282.14669778024347" r="3.0285936243832112" fill="#a78bfa" opacity="0.36996847613248973"/><circle cx="549.0407775439915" cy="423.24677399872326" r="4.03291822578758" fill="#a78bfa" opacity="0.45068373684305696"/><circle cx="622.3767188837176" cy="266.51961107916964" r="5.412883121147751" fill="#a78bfa" opacity="0.45742867583874613"/><circle cx="712.6028301071972" cy="182.6341384143721" r="3.3139811979606746" fill="#a78bfa" opacity="0.4250593788968399"/><circle cx="483.35960851303935" cy="185.24874317555177" r="5.346951162815094" fill="#a78bfa" opacity="0.318134309113957"/><circle cx="522.7527518337554" cy="199.16923903586098" r="4.309933303110301" fill="#a78bfa" opacity="0.34284179714042695"/><circle cx="530.1421069445587" cy="321.6400931714018" r="3.704179936274886" fill="#a78bfa" opacity="0.38054862516466526"/><circle cx="757.1795430014845" cy="294.96571194333734" r="5.565195546485484" fill="#a78bfa" opacity="0.4014072046475485"/><circle cx="472.41056155011717" cy="533.0826272692689" r="5.081181608885527" fill="#a78bfa" opacity="0.39145884780678897"/><circle cx="582.5561309173195" cy="457.7288696648403" r="3.2206611013039947" fill="#a78bfa" opacity="0.32167063285131003"/><circle cx="707.4718835940919" cy="342.81192049078436" r="3.941157703474164" fill="#a78bfa" opacity="0.40234336296562107"/><circle cx="792.3293268610447" cy="431.9193107116616" r="5.300804683752358" fill="#a78bfa" opacity="0.4413281190441921"/><circle cx="775.3702801889187" cy="503.2863653119955" r="2.3447584733366966" fill="#a78bfa" opacity="0.2594889061758294"/><circle cx="513.5840374800546" cy="363.72523627504756" r="5.388291927985847" fill="#a78bfa" opacity="0.17184889387805014"/><circle cx="468.8256680795602" cy="425.54636601704004" r="2.268442277237773" fill="#a78bfa" opacity="0.25785775008145717"/><circle cx="380.83785782752216" cy="339.09263660453433" r="3.0860887611284853" fill="#a78bfa" opacity="0.2792175688641146"/><circle cx="480.86837414642116" cy="331.18546918826576" r="2.9103349544107915" fill="#a78bfa" opacity="0.2987048919359222"/><circle cx="529.9797446946525" cy="404.09562909816236" r="2.867070778273046" fill="#a78bfa" opacity="0.2484263238729909"/><circle cx="607.461480643026" cy="341.0622881072169" r="2.9835891995579003" fill="#a78bfa" opacity="0.21094524110201746"/><circle cx="522.8782419782058" cy="581.0630677298516" r="2.711132617481053" fill="#a78bfa" opacity="0.2317170946346596"/><circle cx="618.5760858929253" cy="357.4336025041739" r="4.197243937849999" fill="#a78bfa" opacity="0.47627080655191095"/><circle cx="494.2612627406411" cy="335.72633080432337" r="2.929797334782779" fill="#a78bfa" opacity="0.3605737602384761"/><circle cx="387.16958686295186" cy="461.1595916506089" r="4.524583699926734" fill="#a78bfa" opacity="0.3180178843671456"/><circle cx="594.1260297626594" cy="358.76029448217406" r="4.778325779177249" fill="#a78bfa" opacity="0.4614643306331709"/><circle cx="530.0208955920491" cy="511.10148675459914" r="4.0589979968965055" fill="#a78bfa" opacity="0.3737842452386394"/><circle cx="567.2177564784322" cy="245.78431866865935" r="2.6553259676322343" fill="#a78bfa" opacity="0.17533313412684948"/><circle cx="417.5115828831772" cy="300.7135954967112" r="4.457340695336461" fill="#a78bfa" opacity="0.45179632196668534"/><circle cx="591.3964146066321" cy="448.76792908682825" r="4.08986246008426" fill="#a78bfa" opacity="0.24084300488699228"/><circle cx="577.3114900584073" cy="411.87147029586146" r="1.9707893922924995" fill="#a78bfa" opacity="0.3510263969609514"/><circle cx="675.2448647029335" cy="276.8196332491186" r="5.316065734438598" fill="#a78bfa" opacity="0.38136747044045477"/><circle cx="588.4393250885468" cy="273.8246373276458" r="4.463204790279269" fill="#a78bfa" opacity="0.32505978974048044"/><circle cx="420.0680768060587" cy="296.6942778035328" r="2.2352415615692736" fill="#a78bfa" opacity="0.25573293917346746"/><circle cx="724.6383424116658" cy="572.740661182655" r="4.016990072280168" fill="#a78bfa" opacity="0.4297120444336906"/><circle cx="722.4248796136021" cy="249.05407993004528" r="2.565480380319059" fill="#a78bfa" opacity="0.43271088783163575"/><circle cx="624.4385084206809" cy="285.2980868704734" r="3.926450276747346" fill="#a78bfa" opacity="0.27439611727837476"/><circle cx="631.3210354285968" cy="383.5462899855198" r="4.978766672499478" fill="#a78bfa" opacity="0.34926004901994023"/><circle cx="505.14480261322944" cy="218.99711157924213" r="5.0786516726016995" fill="#a78bfa" opacity="0.31723956412170085"/><circle cx="408.34166886035916" cy="504.424564035291" r="2.225588337890804" fill="#a78bfa" opacity="0.4725185987027362"/><circle cx="480.00356716801866" cy="194.92146304037533" r="4.921781134232878" fill="#a78bfa" opacity="0.14395172792021185"/><circle cx="508.0419431441339" cy="173.8666528651676" r="4.44704606924206" fill="#a78bfa" opacity="0.3055463437037542"/><circle cx="596.7342806977139" cy="460.26530371433955" r="5.221005516499281" fill="#a78bfa" opacity="0.19044092623982578"/><circle cx="485.09986760074474" cy="187.49729560974237" r="2.8744627272710206" fill="#a78bfa" opacity="0.2168169092060998"/><circle cx="720.8818917111774" cy="537.9980455275077" r="2.001831029728055" fill="#a78bfa" opacity="0.4491816387558356"/><circle cx="679.326399840888" cy="435.5673129706867" r="3.116492715664208" fill="#a78bfa" opacity="0.25345992625225333"/><circle cx="444.8068197720128" cy="244.31091087044933" r="3.280962614715099" fill="#a78bfa" opacity="0.33933169475290925"/><circle cx="635.0724178188507" cy="508.7417589640561" r="2.633731356076896" fill="#a78bfa" opacity="0.49825321924407034"/><circle cx="612.9777667581892" cy="204.65515851974772" r="2.3846633177250625" fill="#a78bfa" opacity="0.1205994606250897"/><circle cx="728.1303847115727" cy="441.07901944686733" r="3.6008242631331084" fill="#a78bfa" opacity="0.31036499344278123"/><circle cx="577.6807671329134" cy="376.1175320353309" r="1.8546136654913425" fill="#a78bfa" opacity="0.43086102737579496"/><circle cx="657.6360724895839" cy="171.33274267635542" r="4.156076719425618" fill="#a78bfa" opacity="0.24984602246899157"/><circle cx="437.8011797991155" cy="352.2275373889823" r="4.341271040216088" fill="#a78bfa" opacity="0.32752739811781795"/><circle cx="373.1682656359395" cy="372.2787072171058" r="2.2385630505159497" fill="#a78bfa" opacity="0.22587183580268175"/><circle cx="553.1443962444717" cy="225.46613598276815" r="4.684729054570198" fill="#a78bfa" opacity="0.2926616755733267"/><circle cx="697.1557132391797" cy="561.2391633158264" r="4.412735999934375" fill="#a78bfa" opacity="0.32873490628320723"/><circle cx="632.1088878720693" cy="249.46442568915322" r="2.18307692669332" fill="#a78bfa" opacity="0.32184624957386404"/><circle cx="648.602901668123" cy="551.2783566414522" r="5.480536104179919" fill="#a78bfa" opacity="0.16558683760929852"/><circle cx="576.477242160367" cy="366.9782334063236" r="2.6482588551938533" fill="#a78bfa" opacity="0.3167999845603481"/><circle cx="704.7889459244038" cy="309.054034516347" r="3.481001067720354" fill="#a78bfa" opacity="0.4999305518390611"/><circle cx="694.3276018434188" cy="398.16493593528094" r="2.6494333941489456" fill="#a78bfa" opacity="0.12174540708307176"/><circle cx="532.5252253776739" cy="198.8947994079879" r="4.477375137992203" fill="#a78bfa" opacity="0.35486247688997535"/><circle cx="736.9943909381379" cy="550.4251530461486" r="5.343832828104496" fill="#a78bfa" opacity="0.343525893301703"/><circle cx="646.5181987764605" cy="474.1810588113419" r="1.9317184804007412" fill="#a78bfa" opacity="0.22006473403889687"/><circle cx="513.1778105946694" cy="171.54472852072476" r="3.2951225470751524" fill="#a78bfa" opacity="0.15547285648528486"/><circle cx="676.3729699185856" cy="387.7892950647713" r="2.8670165533199907" fill="#a78bfa" opacity="0.342547325422056"/><circle cx="574.6060784427395" cy="199.34706237059888" r="4.279260421544313" fill="#a78bfa" opacity="0.44502293451223524"/><circle cx="474.01895944956647" cy="282.69610839428634" r="2.016789483092725" fill="#a78bfa" opacity="0.18114032153505832"/><circle cx="662.0763944621503" cy="362.5302837138515" r="5.0778561774641275" fill="#a78bfa" opacity="0.14508517737034707"/><circle cx="441.484966115089" cy="311.814150033715" r="2.7622014390304686" fill="#a78bfa" opacity="0.16473604873288422"/><circle cx="676.8813715098983" cy="267.3656605431032" r="4.4590307712554935" fill="#a78bfa" opacity="0.1891582346567884"/><circle cx="792.827656165961" cy="447.08268387992564" r="5.0566700084134935" fill="#a78bfa" opacity="0.4342812767298892"/><circle cx="435.3406211358629" cy="243.53111619166887" r="2.1457757648080586" fill="#a78bfa" opacity="0.2701975430781022"/><circle cx="693.0317248871036" cy="294.63608704178034" r="2.1379755714908244" fill="#a78bfa" opacity="0.3685194060998037"/><circle cx="760.5602073545352" cy="364.40492002005243" r="2.771812700480223" fill="#a78bfa" opacity="0.18323251395020634"/><circle cx="537.0289414533546" cy="401.6310320508824" r="5.027870676480234" fill="#a78bfa" opacity="0.4134826557757333"/><circle cx="637.8211702502338" cy="282.1706280984585" r="2.0249524760991333" fill="#a78bfa" opacity="0.4317337206983939"/><circle cx="420.34629199264725" cy="406.47434769535823" r="3.619189414568245" fill="#a78bfa" opacity="0.1357342505501583"/><circle cx="487.7458231869021" cy="433.4980777238406" r="4.377954719960689" fill="#a78bfa" opacity="0.19773008635733275"/><circle cx="522.403860850599" cy="335.14320193545177" r="4.950456794910132" fill="#a78bfa" opacity="0.4793606085749343"/><circle cx="661.1691844264283" cy="342.43755364095784" r="4.006887165829539" fill="#a78bfa" opacity="0.27567607107106595"/><circle cx="499.8500276306977" cy="264.08343767080623" r="4.26799811962992" fill="#a78bfa" opacity="0.3467135288612917"/><circle cx="728.310786091294" cy="439.6897410774152" r="4.896985027939081" fill="#a78bfa" opacity="0.33006885959301147"/><circle cx="690.5106551455185" cy="345.91834585704095" r="2.875548358820379" fill="#a78bfa" opacity="0.422902378779836"/><circle cx="572.8415561770611" cy="475.57431259018153" r="4.1360103759914635" fill="#a78bfa" opacity="0.35681554878596217"/><circle cx="613.9040153562398" cy="592.5174564009774" r="4.371361525543034" fill="#a78bfa" opacity="0.18403628156054763"/><circle cx="629.4148579649894" cy="507.3388767206973" r="2.995111510157585" fill="#a78bfa" opacity="0.2683503351220861"/><circle cx="472.942131761934" cy="377.3211701574222" r="4.472820050828159" fill="#a78bfa" opacity="0.24921630379278212"/><circle cx="679.3240401849754" cy="492.1812624942879" r="3.9971823360770937" fill="#a78bfa" opacity="0.26250170218292623"/><circle cx="424.0487842415348" cy="300.96837341269304" r="4.828544158674776" fill="#a78bfa" opacity="0.1962776429252699"/><circle cx="514.2135082724102" cy="439.5614484156406" r="5.372721739858389" fill="#a78bfa" opacity="0.45510960815940055"/><circle cx="500.82927730687294" cy="345.537361435167" r="5.21800124105066" fill="#a78bfa" opacity="0.20128181476611645"/><circle cx="546.7366104408134" cy="489.275116330998" r="4.303192963078618" fill="#a78bfa" opacity="0.15639267335180193"/><circle cx="660.5587623073422" cy="434.49727223622523" r="4.538615232892335" fill="#a78bfa" opacity="0.4217588409828022"/><circle cx="616.9009533757782" cy="476.299582334384" r="5.151882977783679" fill="#a78bfa" opacity="0.21106536766979844"/><circle cx="415.45242607874843" cy="377.47813151717173" r="2.9803759871050715" fill="#a78bfa" opacity="0.40369943660218266"/><circle cx="791.6091656685045" cy="502.56134610693914" r="2.282261861488223" fill="#a78bfa" opacity="0.422205198132433"/><circle cx="527.3382910237464" cy="423.9061244682621" r="5.387948649562895" fill="#a78bfa" opacity="0.4122971975104883"/><circle cx="631.6793556270424" cy="406.73401802527127" r="2.063842172175646" fill="#a78bfa" opacity="0.4188698963681236"/><circle cx="589.0821988380733" cy="349.89662830097376" r="3.0102830341085793" fill="#a78bfa" opacity="0.1264407879533246"/><circle cx="743.8235390277518" cy="385.4099136881579" r="4.265538323298097" fill="#a78bfa" opacity="0.16746460611466318"/><circle cx="643.7020807903721" cy="293.1635556766942" r="2.0377229975536464" fill="#a78bfa" opacity="0.396956128035672"/><circle cx="683.4955238257659" cy="559.936003037378" r="3.636525958776474" fill="#a78bfa" opacity="0.12685907071921973"/><circle cx="639.1912637749821" cy="601.2014643690445" r="3.926615814678371" fill="#a78bfa" opacity="0.46859858122188597"/><circle cx="521.1995386849413" cy="171.83348450189757" r="4.074601328000426" fill="#a78bfa" opacity="0.28725482063833624"/><circle cx="470.64538900751097" cy="520.3820860947628" r="2.111421553231776" fill="#a78bfa" opacity="0.165795141835697"/><circle cx="653.8573389294694" cy="387.3199915465839" r="3.582040660828352" fill="#a78bfa" opacity="0.3728023609379306"/><circle cx="580.9997252248859" cy="169.87775231108037" r="2.7043224489316344" fill="#a78bfa" opacity="0.20213662256021053"/><circle cx="568.0434550757276" cy="328.5742488432597" r="3.2089595425873996" fill="#a78bfa" opacity="0.44796835879329594"/><circle cx="417.0753122171787" cy="342.82338964193235" r="4.58233228046447" fill="#a78bfa" opacity="0.23361984193790702"/><circle cx="559.830615743422" cy="375.2574093602731" r="1.9841722890734672" fill="#a78bfa" opacity="0.40765283098910005"/><circle cx="592.1696001126849" cy="527.486057145038" r="3.461905744485557" fill="#a78bfa" opacity="0.355639811870642"/><circle cx="749.6905249576675" cy="529.9868884547793" r="4.433551321551204" fill="#a78bfa" opacity="0.251056331419386"/><circle cx="690.2283757651056" cy="428.3704584739426" r="4.761047830618918" fill="#a78bfa" opacity="0.3437319251196459"/><circle cx="507.3075545309748" cy="225.22516867459734" r="2.6858865417540074" fill="#a78bfa" opacity="0.3792971385875717"/><circle cx="725.2810172437017" cy="378.5774663345624" r="3.4489231964573266" fill="#a78bfa" opacity="0.4380641428055242"/><circle cx="657.8389205997975" cy="228.14381920227055" r="5.366244706884026" fill="#a78bfa" opacity="0.39677844310645016"/><circle cx="646.7032543935633" cy="325.25814610077475" r="3.082965542562306" fill="#a78bfa" opacity="0.25167918190825733"/><circle cx="530.1437656497123" cy="455.95546736103245" r="3.07682880461216" fill="#a78bfa" opacity="0.21630553519818932"/><circle cx="694.6747201196144" cy="528.539894270202" r="1.83348698746413" fill="#a78bfa" opacity="0.36248670276720074"/><circle cx="613.5986121079497" cy="153.67050663506907" r="3.4653374280780556" fill="#a78bfa" opacity="0.4279529921943322"/><circle cx="509.7831944436888" cy="267.81702298152743" r="2.495787442661822" fill="#a78bfa" opacity="0.129005496581085"/><circle cx="585.2828482920913" cy="479.2578301933684" r="2.880824150890112" fill="#a78bfa" opacity="0.4116818660357967"/><circle cx="606.641869978187" cy="235.0369050804566" r="4.689763987623155" fill="#a78bfa" opacity="0.46985567290801555"/><circle cx="681.2488402470846" cy="522.461042315563" r="4.817056902125477" fill="#a78bfa" opacity="0.2737068707728758"/><circle cx="771.2509706931469" cy="241.0690153928711" r="2.0470202447846533" fill="#a78bfa" opacity="0.2070008471654728"/><circle cx="442.91274088446204" cy="311.6088389762609" r="5.343377341330052" fill="#a78bfa" opacity="0.14661357006523756"/><circle cx="463.8627802628671" cy="446.78040890224474" r="3.3854757545515897" fill="#a78bfa" opacity="0.41274032813031225"/><circle cx="650.2570786453875" cy="470.65927189383984" r="2.523060233518481" fill="#a78bfa" opacity="0.2732255646819249"/><circle cx="435.20729541668754" cy="239.21597996503434" r="1.8714753502979875" fill="#a78bfa" opacity="0.4204513054387644"/><circle cx="633.1729464932803" cy="238.12284101095292" r="3.2191728241741657" fill="#a78bfa" opacity="0.3542216800013557"/><circle cx="609.5463674994603" cy="550.1367322454536" r="2.3693985333666205" fill="#a78bfa" opacity="0.31908103708643465"/><circle cx="512.6388174864691" cy="230.80827265500827" r="4.487934214249253" fill="#a78bfa" opacity="0.439503153511323"/><circle cx="690.7156140662375" cy="501.88573961894383" r="4.378768848069012" fill="#a78bfa" opacity="0.43138903692830355"/><circle cx="500.02830303154326" cy="245.23793731182002" r="2.7595747351646422" fill="#a78bfa" opacity="0.3233108223089948"/><circle cx="473.5503424466309" cy="366.970878996128" r="5.158863256685436" fill="#a78bfa" opacity="0.43593926217872647"/><circle cx="644.2383541790618" cy="428.1896124892163" r="4.206695323809981" fill="#a78bfa" opacity="0.48309231060091407"/><circle cx="701.7304484704905" cy="376.6494542696852" r="4.040821514464914" fill="#a78bfa" opacity="0.412842300911434"/><circle cx="612.1664767736677" cy="361.79512212859606" r="2.1001268975436687" fill="#a78bfa" opacity="0.3821192172029987"/><circle cx="484.60400124197497" cy="255.80270814758575" r="4.127255544625223" fill="#a78bfa" opacity="0.3932475595595315"/><circle cx="415.9611408779417" cy="465.18772726508564" r="4.752289729192853" fill="#a78bfa" opacity="0.2158543030405417"/><circle cx="440.08664520071306" cy="240.0741560548833" r="3.779358813352883" fill="#a78bfa" opacity="0.3125854504154995"/><circle cx="723.3267074949481" cy="229.70666095023327" r="3.8480528220534325" fill="#a78bfa" opacity="0.40206867864821105"/><circle cx="712.5655155849262" cy="187.7279839467469" r="4.491515704803168" fill="#a78bfa" opacity="0.36755957913119347"/><circle cx="457.575609336402" cy="234.43661013289716" r="4.763093284890055" fill="#a78bfa" opacity="0.33470899167004975"/><circle cx="603.0046928438178" cy="574.4251247885329" r="4.753410896100104" fill="#a78bfa" opacity="0.2568889322178438"/><circle cx="652.6192255582963" cy="166.36874154361624" r="4.869755706936121" fill="#a78bfa" opacity="0.20151461435947565"/><circle cx="760.4836816907932" cy="444.6863000250365" r="2.6996387323364615" fill="#a78bfa" opacity="0.34580006454605605"/><circle cx="660.8538970791923" cy="171.1114372009013" r="3.4304115328937765" fill="#a78bfa" opacity="0.16538483107928187"/><circle cx="581.7670849497817" cy="262.90189156550457" r="3.7468126015737653" fill="#a78bfa" opacity="0.1942692868458107"/><circle cx="729.8459015853468" cy="543.4146417583718" r="5.0783184379339215" fill="#a78bfa" opacity="0.3294960258016363"/><circle cx="592.3749819966372" cy="223.6259877348812" r="2.8181743098422887" fill="#a78bfa" opacity="0.14901485320646315"/><circle cx="643.6297100267118" cy="308.77454857949067" r="5.485979702696204" fill="#a78bfa" opacity="0.3461688696080819"/><circle cx="559.8881189170736" cy="573.0463099339939" r="1.9557034561410547" fill="#a78bfa" opacity="0.2992391485767439"/><circle cx="554.0010760002685" cy="299.8471079196387" r="4.821003588289022" fill="#a78bfa" opacity="0.18948550818953663"/><circle cx="526.0729396121683" cy="311.43545313964364" r="2.519726807437837" fill="#a78bfa" opacity="0.2161208762647584"/><circle cx="566.128165443225" cy="502.85292079865286" r="3.389462711289525" fill="#a78bfa" opacity="0.1916567493462935"/><circle cx="472.73186128230276" cy="516.3762524442376" r="2.3760276736691592" fill="#a78bfa" opacity="0.23605724543798715"/><circle cx="717.010500211839" cy="536.480951968443" r="2.2667534187436105" fill="#a78bfa" opacity="0.34313925048802046"/><circle cx="462.73401479518583" cy="331.286639798591" r="1.870455282740295" fill="#a78bfa" opacity="0.4876561586232856"/><circle cx="703.0433232964557" cy="522.5109201933282" r="5.115955163165927" fill="#a78bfa" opacity="0.3765027061337605"/><circle cx="451.6430250156294" cy="413.33399266554653" r="3.3910341555252668" fill="#a78bfa" opacity="0.3224783992068842"/><circle cx="628.7389198608795" cy="600.0461107331965" r="2.193689877539873" fill="#a78bfa" opacity="0.2540470354119316"/><circle cx="519.0417232631714" cy="498.1788764661179" r="4.517573480866849" fill="#a78bfa" opacity="0.42952981893438846"/><circle cx="574.585897140814" cy="338.8073442990815" r="4.943481350317597" fill="#a78bfa" opacity="0.29916956956032664"/><circle cx="767.0468757784975" cy="238.41522915564448" r="3.7587764905765653" fill="#a78bfa" opacity="0.41350352541077884"/><circle cx="623.4821340803019" cy="525.7666576392826" r="1.9766146004199983" fill="#a78bfa" opacity="0.21148223942611366"/><circle cx="417.96512645210544" cy="336.18082378663416" r="3.6768498344346883" fill="#a78bfa" opacity="0.19677206960041077"/><circle cx="663.7896415739096" cy="473.7217143271661" r="3.6404952522367235" fill="#a78bfa" opacity="0.38567876296583564"/><circle cx="434.4809512931538" cy="239.19314753792563" r="3.7996129551902413" fill="#a78bfa" opacity="0.3051296333270147"/><circle cx="752.9544612621586" cy="305.599144876631" r="4.174508910626173" fill="#a78bfa" opacity="0.2141518327454105"/><circle cx="615.9766238961922" cy="543.4289991199175" r="2.3201074635609986" fill="#a78bfa" opacity="0.27728421677369625"/><circle cx="712.7063970650163" cy="211.35957800576887" r="2.053380535915494" fill="#a78bfa" opacity="0.21336030344013124"/><circle cx="780.3452876091013" cy="472.98063045682665" r="2.783706513233483" fill="#a78bfa" opacity="0.13809982598293571"/><circle cx="559.510597814145" cy="399.75254244385536" r="2.518033818900585" fill="#a78bfa" opacity="0.37394637933466585"/><circle cx="745.4909296900573" cy="290.90214651343365" r="2.962724175862968" fill="#a78bfa" opacity="0.37558866035658867"/><circle cx="468.7527494776162" cy="213.7349716707164" r="2.293950555846095" fill="#a78bfa" opacity="0.4346028018230572"/><circle cx="658.0668234116223" cy="378.4734016655611" r="3.918524816073477" fill="#a78bfa" opacity="0.42165330015588554"/><circle cx="738.0888752956397" cy="302.734900023529" r="2.0970300234854222" fill="#a78bfa" opacity="0.17969003690872343"/><circle cx="613.8479382074106" cy="506.22369646916405" r="5.051132466457784" fill="#a78bfa" opacity="0.19657889400143175"/><circle cx="806.8491199414987" cy="356.7951006568944" r="5.126948354020715" fill="#a78bfa" opacity="0.14060346270445734"/><circle cx="694.255124285102" cy="580.8534756155386" r="4.136340202577412" fill="#a78bfa" opacity="0.15727534637320786"/><circle cx="384.5844562227234" cy="359.89705140010994" r="5.348017910122871" fill="#a78bfa" opacity="0.420890556932427"/><circle cx="720.1675212016562" cy="220.13791730208243" r="2.3503195179626344" fill="#a78bfa" opacity="0.2292695051105693"/><circle cx="445.2011244911532" cy="248.0104453972928" r="3.5575466599315404" fill="#a78bfa" opacity="0.3051180844241753"/><circle cx="489.61483943054714" cy="554.0537883553927" r="2.881729699112475" fill="#a78bfa" opacity="0.28244734891224654"/><circle cx="719.7077020825045" cy="428.2080152992536" r="1.8416975520551204" fill="#a78bfa" opacity="0.1714892846206203"/><circle cx="613.8239816931249" cy="599.088147856868" r="3.131327200494707" fill="#a78bfa" opacity="0.250546174836345"/><circle cx="528.9843153612197" cy="416.3689375618574" r="3.01884789057076" fill="#a78bfa" opacity="0.38821105907205494"/><circle cx="779.33753697612" cy="253.32822254671134" r="3.299075019545853" fill="#a78bfa" opacity="0.2743967858003452"/><circle cx="733.1547670477013" cy="333.27683803761965" r="3.670448710024357" fill="#a78bfa" opacity="0.23361115893814713"/><circle cx="462.0204114452472" cy="393.64774301798093" r="4.7587520716711875" fill="#a78bfa" opacity="0.48891567808110264"/><circle cx="596.273817644357" cy="439.79746391686984" r="3.55938415043056" fill="#a78bfa" opacity="0.26000537248793987"/><circle cx="692.8472184576066" cy="188.84846082437141" r="2.0200625652447344" fill="#a78bfa" opacity="0.4538472288148478"/><circle cx="779.8552021368166" cy="275.82534841802646" r="4.835830832272768" fill="#a78bfa" opacity="0.12131471259985119"/><circle cx="764.2608179877811" cy="515.4137074451144" r="2.478245376609266" fill="#a78bfa" opacity="0.128255883497186"/><circle cx="578.5579178818678" cy="261.38534122006456" r="4.830617231503129" fill="#a78bfa" opacity="0.224432604261674"/><circle cx="527.3118160011159" cy="435.97096335305304" r="5.551183425076306" fill="#a78bfa" opacity="0.48876834348309783"/><circle cx="648.638832325455" cy="337.605554317526" r="5.236083054542541" fill="#a78bfa" opacity="0.36434207207057623"/><circle cx="760.7933117964396" cy="242.52742225019134" r="2.004013047926128" fill="#a78bfa" opacity="0.37156575348693877"/><circle cx="739.1561445558859" cy="369.6931241841838" r="3.474438613280654" fill="#a78bfa" opacity="0.28298292773310096"/><circle cx="790.4809820629933" cy="473.08446084522444" r="4.861233375407755" fill="#a78bfa" opacity="0.17812588908243923"/><circle cx="600.816081459739" cy="166.13344890581126" r="4.253624200075865" fill="#a78bfa" opacity="0.25186895756516603"/><circle cx="566.0823335964458" cy="334.439580050462" r="5.506315705738961" fill="#a78bfa" opacity="0.2847153442027047"/><circle cx="484.2333080282968" cy="262.2453699247841" r="1.9106694627553225" fill="#a78bfa" opacity="0.15845510999206452"/><circle cx="598.5745521430846" cy="392.8815284300223" r="3.1688128801062705" fill="#a78bfa" opacity="0.2356317186402157"/><circle cx="658.841248936049" cy="562.8982791210716" r="1.9425527796149253" fill="#a78bfa" opacity="0.13625468304846436"/><circle cx="649.7285027094516" cy="413.6838754983034" r="5.198968657664954" fill="#a78bfa" opacity="0.24019580554682762"/><circle cx="413.1105206075888" cy="511.4235609830008" r="1.924560634419322" fill="#a78bfa" opacity="0.4587065118784085"/><circle cx="658.8635907816291" cy="495.0098145502732" r="1.9298270905390382" fill="#a78bfa" opacity="0.41349377893377093"/><circle cx="442.96001824301794" cy="348.1940219623904" r="4.016146991401911" fill="#a78bfa" opacity="0.31679215623531487"/><circle cx="442.16978142000585" cy="241.4861647142698" r="3.526841898821294" fill="#a78bfa" opacity="0.4208693811716512"/><circle cx="760.5222123187696" cy="490.2609764749293" r="2.0542926702648403" fill="#a78bfa" opacity="0.42040308798197656"/><circle cx="434.8501553544039" cy="291.5797116333651" r="2.0249858455732466" fill="#a78bfa" opacity="0.28616611049044877"/><circle cx="536.7735925462708" cy="396.267279469945" r="4.034364721179008" fill="#a78bfa" opacity="0.30345787859056145"/><circle cx="702.7214071144438" cy="447.2732091134976" r="2.953360111825168" fill="#a78bfa" opacity="0.4637194084795192"/><circle cx="520.0938399983895" cy="578.8817543912671" r="2.5784757997840644" fill="#a78bfa" opacity="0.21276938664261252"/><circle cx="505.24284044572215" cy="217.90127484858732" r="4.9473036715760825" fill="#a78bfa" opacity="0.4140988475875929"/><circle cx="792.2550053499269" cy="291.798898793997" r="3.591343542188406" fill="#a78bfa" opacity="0.3606619453290477"/><circle cx="561.9803805870187" cy="168.267413732535" r="3.3480026667937635" fill="#a78bfa" opacity="0.24360031862277537"/><circle cx="564.4272451915417" cy="519.8766966358025" r="2.903649939969182" fill="#a78bfa" opacity="0.2013385499501601"/><circle cx="662.2214980234565" cy="283.23833452097836" r="2.5895997824147345" fill="#a78bfa" opacity="0.4674882182525471"/><circle cx="698.354653499901" cy="339.1508585761227" r="2.1029007151722907" fill="#a78bfa" opacity="0.3909980454156175"/><circle cx="636.4612796781669" cy="301.3416964476884" r="3.1738036213442684" fill="#a78bfa" opacity="0.27698763650376346"/><circle cx="571.7599144735678" cy="204.38279360985396" r="2.751784695312381" fill="#a78bfa" opacity="0.21170231374446302"/><circle cx="497.66202761253624" cy="356.7845768578136" r="5.031998079456389" fill="#a78bfa" opacity="0.3900265442626551"/><circle cx="547.7511871294624" cy="483.4106940235995" r="5.59403318837285" fill="#a78bfa" opacity="0.33899346156511456"/><circle cx="520.1848345529169" cy="289.41463345873115" r="4.47485172059387" fill="#a78bfa" opacity="0.2257279807748273"/><circle cx="426.11830114682095" cy="297.10368079398336" r="3.347779357805848" fill="#a78bfa" opacity="0.3132610076153651"/><circle cx="799.1849684145946" cy="407.8671873985451" r="3.729427151568234" fill="#a78bfa" opacity="0.4226522411452606"/><circle cx="515.0324870447107" cy="310.65452768808024" r="5.0864175975322725" fill="#a78bfa" opacity="0.2148590702423826"/><circle cx="693.8033975728007" cy="544.1459040712919" r="2.6637903971597554" fill="#a78bfa" opacity="0.4407890638383105"/><circle cx="691.7622135509596" cy="266.7774024713593" r="4.806962906941771" fill="#a78bfa" opacity="0.46297355490271"/><circle cx="612.3762526161648" cy="464.2642184095797" r="3.099120275117457" fill="#a78bfa" opacity="0.3672998181777075"/><circle cx="621.7691969272926" cy="291.31734296438214" r="4.385910265892744" fill="#a78bfa" opacity="0.49823934166226536"/><circle cx="763.1349250784027" cy="352.4620191399622" r="2.9093177711591123" fill="#a78bfa" opacity="0.46600969184655694"/><circle cx="448.2249646206164" cy="374.9119313600948" r="3.5225940097123383" fill="#a78bfa" opacity="0.14910747269634156"/><circle cx="530.2000779948576" cy="361.46730443310344" r="2.708115413971245" fill="#a78bfa" opacity="0.3706498783873394"/><circle cx="681.2695816794579" cy="498.01866914279435" r="2.270047204196453" fill="#a78bfa" opacity="0.2619623397896066"/><circle cx="727.8241818954399" cy="365.8755097154237" r="2.3236866502091287" fill="#a78bfa" opacity="0.2018497647019103"/><circle cx="660.0619257181589" cy="443.74003668428657" r="4.753361020609736" fill="#a78bfa" opacity="0.31498887183610347"/><circle cx="488.82133039529367" cy="252.62939177321107" r="2.2607552194967866" fill="#a78bfa" opacity="0.18787911855150013"/><circle cx="669.8746556657179" cy="433.4872891136814" r="5.075544110685587" fill="#a78bfa" opacity="0.23578972233925016"/><circle cx="543.0534925323118" cy="527.5051748112554" r="2.550204529426992" fill="#a78bfa" opacity="0.30914027605671435"/><circle cx="627.4873420353773" cy="347.7723851907915" r="4.810881981626153" fill="#a78bfa" opacity="0.34275245691183953"/><circle cx="594.3507651380446" cy="422.20708432271334" r="2.786187030561268" fill="#a78bfa" opacity="0.34641032919753345"/><circle cx="671.9240593993255" cy="359.1213496169672" r="5.085796371102333" fill="#a78bfa" opacity="0.17016674077603966"/><circle cx="798.0572487746958" cy="462.59897452415163" r="3.350733591429889" fill="#a78bfa" opacity="0.33283331331331284"/><circle cx="671.8519189370443" cy="492.1872821709983" r="3.6472046222537755" fill="#a78bfa" opacity="0.35709152626339347"/><circle cx="710.4367212516618" cy="473.4079002837897" r="4.025862873531878" fill="#a78bfa" opacity="0.269662394602783"/><circle cx="607.7143508120715" cy="156.00149300322727" r="4.518379058688879" fill="#a78bfa" opacity="0.3799722403148189"/><circle cx="673.7511766656975" cy="506.206117815324" r="3.7931907063350083" fill="#a78bfa" opacity="0.24575205762404947"/><circle cx="468.91918173566637" cy="265.50133692878137" r="2.242306359484792" fill="#a78bfa" opacity="0.489007971980609"/><circle cx="489.37442811510505" cy="353.40854440421487" r="1.821039462275803" fill="#a78bfa" opacity="0.20080029279459266"/><circle cx="781.5192013284883" cy="507.6624039975435" r="5.312546934187412" fill="#a78bfa" opacity="0.24826865992043168"/><circle cx="691.8646591142533" cy="525.0728626277247" r="3.439047431759536" fill="#a78bfa" opacity="0.4723407838912681"/><circle cx="610.5529607798576" cy="300.8115628765583" r="3.791594297811389" fill="#a78bfa" opacity="0.1395622799033299"/><circle cx="432.52681774922735" cy="426.3757506559665" r="4.500278198160231" fill="#a78bfa" opacity="0.46648509555030615"/><circle cx="737.641498335285" cy="315.16605441313504" r="2.71673444584012" fill="#a78bfa" opacity="0.15005203230772168"/><circle cx="823.5380291109533" cy="412.69269851705894" r="3.530830012820661" fill="#a78bfa" opacity="0.39241486076731236"/><circle cx="785.9111793943495" cy="301.4563150416896" r="3.493405229225755" fill="#a78bfa" opacity="0.2836235296213999"/><circle cx="691.1828816360962" cy="464.9167369913355" r="3.666945170052349" fill="#a78bfa" opacity="0.3606239683972672"/><circle cx="482.65940709544793" cy="504.53228042113756" r="5.4760557293891905" fill="#a78bfa" opacity="0.3360019839415327"/><circle cx="824.7930641812981" cy="350.1890231388828" r="4.37961938213557" fill="#a78bfa" opacity="0.2649107506545261"/><circle cx="723.4010707006669" cy="373.74911054574943" r="4.936505633220077" fill="#a78bfa" opacity="0.4536193944746628"/><circle cx="787.4053713423383" cy="287.5899924762481" r="1.9867111543193459" fill="#a78bfa" opacity="0.4481201706128195"/><circle cx="419.83793460602584" cy="359.97382488553046" r="2.8198046080768107" fill="#a78bfa" opacity="0.1962317350367084"/><circle cx="561.1469289234776" cy="475.05163340106026" r="2.7525511598214507" fill="#a78bfa" opacity="0.49163600970525295"/><circle cx="660.5442524095891" cy="600.0321758697112" r="2.287591676786542" fill="#a78bfa" opacity="0.2832861415529624"/><circle cx="601.5929522296208" cy="563.2467922720382" r="2.975051614828408" fill="#a78bfa" opacity="0.3086230552243069"/><circle cx="580.572948976756" cy="585.4054766389283" r="3.6489545926451683" fill="#a78bfa" opacity="0.18403809955809264"/><circle cx="632.6926167085612" cy="446.518778844198" r="4.46031565349549" fill="#a78bfa" opacity="0.12101928782183677"/><circle cx="712.8078581355965" cy="418.2427866830919" r="4.278789214417339" fill="#a78bfa" opacity="0.29141863169614224"/><circle cx="625.1397847525378" cy="585.2729278638687" r="4.584746702946722" fill="#a78bfa" opacity="0.4602780690090731"/><circle cx="741.6515966797543" cy="500.06595703519815" r="3.52365888133645" fill="#a78bfa" opacity="0.3196514852205291"/><circle cx="453.6014672647643" cy="465.1401805541434" r="2.744657858274877" fill="#a78bfa" opacity="0.29186032865662126"/><circle cx="706.5685831690352" cy="385.7552365782091" r="4.995153788104653" fill="#a78bfa" opacity="0.3856203194940463"/><circle cx="461.5865430365293" cy="264.6761385358453" r="4.1933812575414775" fill="#a78bfa" opacity="0.4834767524944618"/><circle cx="784.3698961883875" cy="352.83174983437783" r="4.850750359892845" fill="#a78bfa" opacity="0.2139858934888616"/><circle cx="511.65159609731916" cy="478.999424927853" r="2.265877456776798" fill="#a78bfa" opacity="0.45707996961195024"/><circle cx="538.2115933657204" cy="434.79390603269513" r="4.062170627340675" fill="#a78bfa" opacity="0.2660532532865182"/><circle cx="544.401854176674" cy="369.64866641333043" r="3.5908448049798607" fill="#a78bfa" opacity="0.1846067399578169"/><circle cx="808.1297316580019" cy="392.1760319679127" r="2.8712416015565396" fill="#a78bfa" opacity="0.23238891957793384"/><circle cx="504.19427763907436" cy="195.25792068014223" r="5.09032881911844" fill="#a78bfa" opacity="0.30747014184016735"/><circle cx="651.9482540282056" cy="432.03823675072084" r="4.033254649117589" fill="#a78bfa" opacity="0.20918807516340165"/><circle cx="513.0778900597677" cy="510.59147466198374" r="2.566831559129059" fill="#a78bfa" opacity="0.37980175942648203"/><circle cx="511.094937092498" cy="441.68489090803206" r="2.047824867069721" fill="#a78bfa" opacity="0.37839175245258955"/><circle cx="716.6972130959869" cy="475.4306646099888" r="4.277921002916992" fill="#a78bfa" opacity="0.1754438702436164"/><circle cx="476.7154231502332" cy="255.3911346645984" r="3.9772504579275845" fill="#a78bfa" opacity="0.33155402096454056"/><circle cx="576.651518297475" cy="389.5800955571298" r="3.898340421356261" fill="#a78bfa" opacity="0.25869163267780093"/><circle cx="643.5191608175303" cy="547.0721493792375" r="2.0523721046745775" fill="#a78bfa" opacity="0.31745917482767255"/><circle cx="519.2897549752221" cy="460.2156921880789" r="4.06961775328964" fill="#a78bfa" opacity="0.2987852734746411"/><circle cx="387.44622829149205" cy="318.49047264453026" r="4.465932345762849" fill="#a78bfa" opacity="0.23348892027977852"/><circle cx="725.4409522586398" cy="411.18067710679423" r="3.137174980528653" fill="#a78bfa" opacity="0.44815227523911744"/><circle cx="720.8278240784974" cy="538.720463959422" r="2.7534349501132964" fill="#a78bfa" opacity="0.1607395631680265"/><circle cx="752.1921320778185" cy="301.1440083899909" r="2.0749375028535724" fill="#a78bfa" opacity="0.46439956393558535"/><circle cx="430.08663120529854" cy="229.3717989950604" r="4.961504292115569" fill="#a78bfa" opacity="0.1628891964489594"/><circle cx="825.4611134390565" cy="415.4231090089333" r="4.9974435130134225" fill="#a78bfa" opacity="0.37605569638777525"/><circle cx="467.0691346322046" cy="458.5092456809165" r="5.403744726628065" fill="#a78bfa" opacity="0.48881488768849524"/><circle cx="613.9848490011537" cy="230.35306507995256" r="1.8594533717259765" fill="#a78bfa" opacity="0.41206304777879266"/><circle cx="426.8854945401889" cy="425.94697439789996" r="5.004099963977933" fill="#a78bfa" opacity="0.2789598665619269"/><circle cx="594.47575212655" cy="281.988352807366" r="5.543058982677757" fill="#a78bfa" opacity="0.1950199991511181"/><circle cx="415.96317583019436" cy="368.44324449945714" r="2.427712444961071" fill="#a78bfa" opacity="0.47545071235392244"/><circle cx="577.3860056178239" cy="495.567137317699" r="2.73229316752404" fill="#a78bfa" opacity="0.23817312490660697"/><circle cx="499.74071403705807" cy="456.86758677130746" r="5.399282715842127" fill="#a78bfa" opacity="0.2959645414585248"/><circle cx="637.362127302591" cy="286.8827175855978" r="4.775239040888846" fill="#a78bfa" opacity="0.42615938030648975"/><circle cx="699.996159187856" cy="400.46776356969974" r="5.208928803354501" fill="#a78bfa" opacity="0.1913461948791519"/><circle cx="734.41143422827" cy="413.4164080974768" r="4.73363938536495" fill="#a78bfa" opacity="0.4194982889713719"/><circle cx="586.7267443832516" cy="572.8552647221434" r="1.8055455897003412" fill="#a78bfa" opacity="0.2669754257285968"/><circle cx="814.6850946468691" cy="307.1574384177488" r="4.020006026513874" fill="#a78bfa" opacity="0.462834130381234"/><circle cx="449.646028117688" cy="378.561390976248" r="3.4776641875505447" fill="#a78bfa" opacity="0.24788408672902731"/><circle cx="471.29876522005236" cy="282.63942157742986" r="2.222229207865894" fill="#a78bfa" opacity="0.31692812737543136"/><circle cx="623.360815396829" cy="478.5633531316938" r="4.921811315044761" fill="#a78bfa" opacity="0.2276233177119866"/><circle cx="624.7234360588914" cy="184.8226575361215" r="3.315686965920031" fill="#a78bfa" opacity="0.49440063365269454"/><circle cx="690.2693828826627" cy="543.1535685416565" r="4.498368670791388" fill="#a78bfa" opacity="0.30088073311839253"/><circle cx="512.4382083788039" cy="504.80825161303574" r="4.06285450514406" fill="#a78bfa" opacity="0.47922332127112893"/><circle cx="456.5797283847931" cy="334.590845168564" r="3.6749323088675734" fill="#a78bfa" opacity="0.21984760949853807"/><circle cx="477.1447481174154" cy="278.00076268277314" r="2.600413572974503" fill="#a78bfa" opacity="0.38996136814821514"/><circle cx="699.7456910351917" cy="202.90737738476838" r="3.857172013819218" fill="#a78bfa" opacity="0.21433607301209123"/><circle cx="580.8340497903621" cy="553.9648007998741" r="4.413861834816634" fill="#a78bfa" opacity="0.3867656455608085"/><circle cx="379.9596556448273" cy="358.52835174794996" r="4.407190675660968" fill="#a78bfa" opacity="0.31564628692809493"/><circle cx="513.8839422170145" cy="536.3087672708781" r="2.899622249044478" fill="#a78bfa" opacity="0.48211490564513954"/><circle cx="466.2360627056568" cy="219.25752244446866" r="1.8493836648762227" fill="#a78bfa" opacity="0.4641836391249672"/><circle cx="641.2017221676712" cy="233.86638854361362" r="2.9146524420008064" fill="#a78bfa" opacity="0.37530796889681367"/><circle cx="729.1986219865216" cy="505.54976908736177" r="5.46379820741713" fill="#a78bfa" opacity="0.2608259295905009"/><circle cx="698.4926223173668" cy="487.5521147439728" r="3.713554082997143" fill="#a78bfa" opacity="0.4507059116708115"/><circle cx="742.0984418495542" cy="294.78455371956994" r="4.6669927597045895" fill="#a78bfa" opacity="0.2620405579218641"/><circle cx="509.24979737400395" cy="310.84671740112753" r="2.073182259313762" fill="#a78bfa" opacity="0.13972425368148833"/><circle cx="740.6692258421159" cy="339.54767657835146" r="2.180396383628249" fill="#a78bfa" opacity="0.2587517108255997"/><circle cx="468.36057130967276" cy="517.5703640930544" r="4.204754851199686" fill="#a78bfa" opacity="0.48657514550257475"/><circle cx="803.3921621104325" cy="324.08158961452796" r="2.786168121546507" fill="#a78bfa" opacity="0.23895754961762578"/><circle cx="448.0110244738081" cy="446.7191704345304" r="4.65346190687269" fill="#a78bfa" opacity="0.27775955606717617"/><circle cx="798.0494918341693" cy="362.8257617785578" r="3.2705563712865113" fill="#a78bfa" opacity="0.23409739772323518"/><circle cx="512.1236388570995" cy="473.42052287764" r="4.385575017519296" fill="#a78bfa" opacity="0.17530946016777307"/><circle cx="718.0128975514915" cy="246.99243726562636" r="2.554758261144161" fill="#a78bfa" opacity="0.18916892817709596"/><circle cx="741.2855467931734" cy="269.5814746021396" r="3.463056692294776" fill="#a78bfa" opacity="0.41378002595622093"/><circle cx="523.4277984740545" cy="445.04795602630594" r="5.413279024884105" fill="#a78bfa" opacity="0.23659535112325103"/><circle cx="627.9032496908552" cy="578.0359254545828" r="2.505669733323157" fill="#a78bfa" opacity="0.42099180244375023"/><circle cx="476.69780718936255" cy="571.0063220176771" r="4.57979137673974" fill="#a78bfa" opacity="0.23384260131511836"/><circle cx="579.6640680527839" cy="494.1787641356819" r="5.340586610697209" fill="#a78bfa" opacity="0.36252290700096634"/><circle cx="472.6570947827389" cy="564.8594850318876" r="2.0404948864132164" fill="#a78bfa" opacity="0.464786525615491"/><circle cx="474.60204178057165" cy="237.9725843528795" r="3.839498837478459" fill="#a78bfa" opacity="0.4299512128578499"/><circle cx="522.4342710238083" cy="377.064125669997" r="4.914975354075431" fill="#a78bfa" opacity="0.4648300704965368"/><circle cx="532.7592263105557" cy="446.5790083861239" r="1.9432263446971774" fill="#a78bfa" opacity="0.15284653660375624"/><circle cx="709.4683346906123" cy="265.13813375428185" r="3.5245641853660343" fill="#a78bfa" opacity="0.14977046953979878"/><circle cx="537.2758541484991" cy="233.61715899443388" r="2.8738268563523888" fill="#a78bfa" opacity="0.3945128256874159"/><circle cx="557.0552597104896" cy="199.370973387896" r="3.8481977663934233" fill="#a78bfa" opacity="0.20841643093619494"/><circle cx="558.4323798543633" cy="551.1469210394918" r="5.134205264411866" fill="#a78bfa" opacity="0.4314803459169343"/><circle cx="424.9333868319874" cy="231.75986919268067" r="4.165776838734746" fill="#a78bfa" opacity="0.23895532498601824"/><circle cx="520.6722750129885" cy="181.2922281422406" r="3.495223003812134" fill="#a78bfa" opacity="0.37674786895979195"/><circle cx="519.8677739496153" cy="478.5563752747256" r="3.2890258744359016" fill="#a78bfa" opacity="0.3290703715989366"/><circle cx="617.2914079809844" cy="588.3225680110711" r="2.570307427458465" fill="#a78bfa" opacity="0.2067748598428443"/><circle cx="564.4333266841271" cy="318.50851770596313" r="2.3798524510115384" fill="#a78bfa" opacity="0.3798078277939931"/><circle cx="746.8226909588601" cy="366.0345208787745" r="4.977561181224883" fill="#a78bfa" opacity="0.3322236644523218"/><circle cx="550.9371365782391" cy="238.77240740086972" r="4.156206626445055" fill="#a78bfa" opacity="0.21319417519960554"/><circle cx="445.2180224775176" cy="526.4133662766269" r="4.48937157895416" fill="#a78bfa" opacity="0.29245169703383"/><circle cx="503.23438123205216" cy="453.50527327603766" r="1.8854403141885996" fill="#a78bfa" opacity="0.463603307553567"/><circle cx="600.2813406656554" cy="299.52402254382474" r="3.1695199774578215" fill="#a78bfa" opacity="0.13375362769234925"/><circle cx="499.46202730594183" cy="242.38632685642776" r="3.7651666581630705" fill="#a78bfa" opacity="0.45287371820304545"/><circle cx="443.872157280107" cy="233.88212327688896" r="3.0977911515161396" fill="#a78bfa" opacity="0.2913535698922351"/><circle cx="612.0283276223789" cy="546.2037594697916" r="5.291619407758117" fill="#a78bfa" opacity="0.26917568760458377"/><circle cx="696.1518194955355" cy="171.3475536474162" r="3.082082668878138" fill="#a78bfa" opacity="0.35514726795721796"/><circle cx="434.1162895243058" cy="222.65701745840303" r="4.615512292832136" fill="#a78bfa" opacity="0.20962847082410008"/><circle cx="418.7881287523261" cy="477.6632421665038" r="4.15801426526159" fill="#a78bfa" opacity="0.1391942845704034"/><circle cx="388.86792890015954" cy="358.17244006038527" r="3.8853983987122778" fill="#a78bfa" opacity="0.24666748503688724"/><circle cx="423.65851243472616" cy="393.9169434671954" r="4.87603721935302" fill="#a78bfa" opacity="0.39496018827427176"/><circle cx="550.3773640725492" cy="509.7431264184212" r="4.178529541194439" fill="#a78bfa" opacity="0.2781614970276132"/><circle cx="435.48242698566247" cy="225.78535709108192" r="5.3760437278077005" fill="#a78bfa" opacity="0.12830874097067863"/><circle cx="593.6831730711239" cy="595.771215581783" r="5.419215641543269" fill="#a78bfa" opacity="0.40127981069032104"/><circle cx="512.8881285110051" cy="531.2951539419819" r="5.049476280249655" fill="#a78bfa" opacity="0.4002440854208544"/><circle cx="500.8935978779408" cy="370.15038054468573" r="3.6846841014921665" fill="#a78bfa" opacity="0.4501094545284286"/><circle cx="615.2987371819839" cy="547.9095339797179" r="5.188937034271658" fill="#a78bfa" opacity="0.17140293274540452"/><circle cx="745.0147933806902" cy="371.1986690428703" r="4.8984391782432795" fill="#a78bfa" opacity="0.3170223691547289"/><circle cx="725.6833269004118" cy="398.2545588725957" r="5.2252971904352306" fill="#a78bfa" opacity="0.15029674992430955"/><circle cx="744.3176431532426" cy="349.4247289266323" r="5.511121359467507" fill="#a78bfa" opacity="0.29779259479139"/><circle cx="578.0785700834804" cy="476.1940569200294" r="3.9523063672706487" fill="#a78bfa" opacity="0.2053039472969249"/><circle cx="410.6209831434934" cy="266.8138454596224" r="4.768866738304496" fill="#a78bfa" opacity="0.32046345876995475"/><circle cx="600" cy="380" r="230" fill="none" stroke="rgba(255,255,255,0.18)" stroke-width="3"/><text x="92" y="672" fill="rgba(231,231,234,0.74)" font-family="ui-monospace,SFMono-Regular,Menlo,monospace" font-size="30">random-matrix-visualizer</text>
</svg>