<?xml version="1.0" encoding="UTF-8"?>
<svg xmlns="http://www.w3.org/2000/svg" width="1200" height="760" viewBox="0 0 1200 760" role="img" aria-label="tabular-foundation-models">
<defs>
  <linearGradient id="bg" x1="0" y1="0" x2="1" y2="1">
    <stop offset="0" stop-color="#07101b"/>
    <stop offset="0.55" stop-color="#0b1020"/>
    <stop offset="1" stop-color="#121827"/>
  </linearGradient>
  <radialGradient id="glow" cx="28%" cy="16%" r="78%">
    <stop offset="0" stop-color="#a78bfa" stop-opacity="0.28"/>
    <stop offset="0.58" stop-color="#a78bfa" stop-opacity="0.055"/>
    <stop offset="1" stop-color="#a78bfa" stop-opacity="0"/>
  </radialGradient>
  <filter id="soft" x="-30%" y="-30%" width="160%" height="160%"><feGaussianBlur stdDeviation="12"/></filter>
</defs>
<rect width="1200" height="760" fill="url(#bg)"/>
<rect width="1200" height="760" fill="url(#glow)"/>
<rect x="58" y="58" width="1084" height="644" rx="28" fill="rgba(255,255,255,0.025)" stroke="rgba(255,255,255,0.095)"/>
<rect x="170" y="498.61657169647515" width="48" height="101.38342830352485" rx="8" fill="#a78bfa"/><rect x="256" y="371.1006442573853" width="48" height="228.89935574261472" rx="8" fill="rgba(255,255,255,0.22)"/><rect x="342" y="281.98009320069104" width="48" height="318.01990679930896" rx="8" fill="rgba(255,255,255,0.22)"/><rect x="428" y="476.7324492218904" width="48" height="123.26755077810958" rx="8" fill="#a78bfa"/><rect x="514" y="422.13863611221313" width="48" height="177.86136388778687" rx="8" fill="rgba(255,255,255,0.22)"/><rect x="600" y="415.3722505294718" width="48" height="184.62774947052822" rx="8" fill="rgba(255,255,255,0.22)"/><rect x="686" y="497.41013798397034" width="48" height="102.58986201602966" rx="8" fill="#a78bfa"/><rect x="772" y="282.0253371982835" width="48" height="317.9746628017165" rx="8" fill="rgba(255,255,255,0.22)"/><rect x="858" y="216.49754184298217" width="48" height="383.5024581570178" rx="8" fill="rgba(255,255,255,0.22)"/><rect x="944" y="482.93375886278227" width="48" height="117.06624113721773" rx="8" fill="#a78bfa"/><path d="M150 600 H1040" stroke="rgba(255,255,255,0.18)" stroke-width="3"/><text x="92" y="672" fill="rgba(231,231,234,0.74)" font-family="ui-monospace,SFMono-Regular,Menlo,monospace" font-size="30">tabular-foundation-models</text>
</svg>