<?xml version="1.0" encoding="UTF-8"?>
<svg xmlns="http://www.w3.org/2000/svg" width="1200" height="760" viewBox="0 0 1200 760" role="img" aria-label="tierra-web">
<defs>
  <linearGradient id="bg" x1="0" y1="0" x2="1" y2="1">
    <stop offset="0" stop-color="#07101b"/>
    <stop offset="0.55" stop-color="#0b1020"/>
    <stop offset="1" stop-color="#121827"/>
  </linearGradient>
  <radialGradient id="glow" cx="28%" cy="16%" r="78%">
    <stop offset="0" stop-color="#5eead4" stop-opacity="0.28"/>
    <stop offset="0.58" stop-color="#5eead4" stop-opacity="0.055"/>
    <stop offset="1" stop-color="#5eead4" stop-opacity="0"/>
  </radialGradient>
  <filter id="soft" x="-30%" y="-30%" width="160%" height="160%"><feGaussianBlur stdDeviation="12"/></filter>
</defs>
<rect width="1200" height="760" fill="url(#bg)"/>
<rect width="1200" height="760" fill="url(#glow)"/>
<rect x="58" y="58" width="1084" height="644" rx="28" fill="rgba(255,255,255,0.025)" stroke="rgba(255,255,255,0.095)"/>
<path d="M568.9551031216979 194.49866629904136 l-17.73395547643304 -7.740962681360543 l-5.40874463506043 5.8347730608657" stroke="rgba(255,255,255,0.24)" stroke-width="3.007650549756363" stroke-linecap="round"/><path d="M816.9308910891414 482.0887335180305 l-1.1404304467141628 13.509130130521953 l9.328954076394439 9.782457475550473" stroke="rgba(255,255,255,0.24)" stroke-width="2.7461375903803855" stroke-linecap="round"/><path d="M565.0440033897758 256.8370747915469 l-13.184475559741259 7.317368703894317 l-0.3597032893449068 -10.619249808602035" stroke="rgba(255,255,255,0.24)" stroke-width="4.7308339544106275" stroke-linecap="round"/><path d="M774.8763186857104 264.64439736446366 l-14.44021038338542 1.3100424064323306 l14.83501379750669 -4.160258154384792" stroke="rgba(255,255,255,0.24)" stroke-width="3.5084067408461124" stroke-linecap="round"/><path d="M288.6298328265548 268.9840403175913 l-13.35358065739274 11.654700371436775 l12.634212819859385 -4.407576533965766" stroke="rgba(255,255,255,0.24)" stroke-width="2.4938702166546136" stroke-linecap="round"/><path d="M168.97040884941816 513.2261933176778 l-14.140795793384314 0.38046399783343077 l-11.665559286251664 1.4274989711120725" stroke="#5eead4" stroke-width="3.7576951917726547" stroke-linecap="round"/><path d="M833.87152697891 157.33711536740884 l10.563233625143766 14.94833945017308 l-10.778253631666303 7.872197669930756" stroke="rgba(255,255,255,0.24)" stroke-width="4.000418394105509" stroke-linecap="round"/><path d="M786.4580346271396 208.95335355540738 l14.306458342820406 6.071530158631504 l14.235743125900626 -17.174913237802684" stroke="rgba(255,255,255,0.24)" stroke-width="2.7147518445272" stroke-linecap="round"/><path d="M459.84989639371634 138.83096180623397 l-1.3287470676004887 7.785749319009483 l14.883671281859279 -12.561116161756217" stroke="#5eead4" stroke-width="4.535192231880501" stroke-linecap="round"/><path d="M617.0059440657496 400.6697196303867 l2.375978294759989 -4.230467607267201 l-2.595539415255189 -7.746730620972812" stroke="rgba(255,255,255,0.24)" stroke-width="3.7751302879769355" stroke-linecap="round"/><path d="M585.5676266178489 515.312350874301 l-6.3734558410942554 -0.08545039314776659 l10.18279273621738 1.5776992561295629" stroke="rgba(255,255,255,0.24)" stroke-width="2.151460162596777" stroke-linecap="round"/><path d="M727.7027602121234 239.31874247035012 l-10.282028418034315 3.145918454043567 l16.41316389106214 -17.87578276824206" stroke="rgba(255,255,255,0.24)" stroke-width="2.696688798489049" stroke-linecap="round"/><path d="M344.9492781981826 527.9151631868444 l7.885955449193716 -13.507483807392418 l12.01394715718925 -8.109732541255653" stroke="rgba(255,255,255,0.24)" stroke-width="3.858545306371525" stroke-linecap="round"/><path d="M698.0589811131358 532.3184823780321 l-8.591573026031256 12.407292346470058 l-7.208544904366136 5.291506980545819" stroke="rgba(255,255,255,0.24)" stroke-width="2.787090339930728" stroke-linecap="round"/><path d="M821.8412866815925 501.4353887340985 l-1.0428838022053242 -13.662418794818223 l-13.14599777944386 10.544618231244385" stroke="rgba(255,255,255,0.24)" stroke-width="4.809325470821932" stroke-linecap="round"/><path d="M215.0069798156619 247.93660903116688 l9.199114490300417 -3.4545856760814786 l8.275967499241233 -16.699878464452922" stroke="#5eead4" stroke-width="3.09130256366916" stroke-linecap="round"/><path d="M485.0119626149535 228.70612688129768 l-11.351562950760126 8.177833023481071 l4.011856852099299 -11.474812391214073" stroke="rgba(255,255,255,0.24)" stroke-width="3.4877331510651857" stroke-linecap="round"/><path d="M667.9010043665767 539.665401482489 l6.767585400491953 -8.412799109704792 l10.060365652665496 14.636450056917965" stroke="rgba(255,255,255,0.24)" stroke-width="4.579097808571532" stroke-linecap="round"/><path d="M303.15149154514074 174.97258636867628 l2.3191098980605602 16.901516276411712 l12.878441227599978 7.882817876525223" stroke="rgba(255,255,255,0.24)" stroke-width="4.8962555297184736" stroke-linecap="round"/><path d="M583.5171778127551 310.59674815973267 l-7.032827775925398 -9.155275200493634 l-15.954654643312097 -1.021712045185268" stroke="rgba(255,255,255,0.24)" stroke-width="4.332553101005033" stroke-linecap="round"/><path d="M939.8719340190291 332.2670853114687 l8.129107888787985 7.807031842879951 l16.176716772839427 -2.015242430381477" stroke="rgba(255,255,255,0.24)" stroke-width="2.743434476898983" stroke-linecap="round"/><path d="M741.0534982010722 237.79714686563239 l-2.9230112694203854 -16.834784944541752 l-15.911366337910295 17.444836889393628" stroke="rgba(255,255,255,0.24)" stroke-width="4.733550154836848" stroke-linecap="round"/><path d="M828.7072255834937 483.7840511999093 l0.28918541595339775 8.852936851792037 l-8.788323836401105 7.764661473222077" stroke="#5eead4" stroke-width="3.631366550223902" stroke-linecap="round"/><path d="M487.129838578403 216.68270477792248 l8.05192993953824 -8.818943087942898 l17.254988869652152 -7.153295229189098" stroke="rgba(255,255,255,0.24)" stroke-width="4.651275371434167" stroke-linecap="round"/><path d="M408.11317678540945 468.2550208992325 l10.310878124088049 10.907944682054222 l-8.879656674340367 9.972590622492135" stroke="rgba(255,255,255,0.24)" stroke-width="3.2432029948104173" stroke-linecap="round"/><path d="M210.78794699162245 565.3941384493373 l-14.22732787951827 1.5597918732091784 l1.0662005301564932 -2.0640942407771945" stroke="rgba(255,255,255,0.24)" stroke-width="2.629719839664176" stroke-linecap="round"/><path d="M196.46747317165136 444.3236406496726 l10.256502907723188 6.000924962572753 l-5.87822656519711 -6.574987697415054" stroke="rgba(255,255,255,0.24)" stroke-width="4.530649743275717" stroke-linecap="round"/><path d="M298.4914464876056 409.1717738076113 l16.295672792941332 3.254117692820728 l8.751089444383979 -12.344139735214412" stroke="rgba(255,255,255,0.24)" stroke-width="3.075179335894063" stroke-linecap="round"/><path d="M627.0696752890944 214.92066606646404 l-4.010842088609934 -10.429096427746117 l4.7670529168099165 -16.74519995134324" stroke="rgba(255,255,255,0.24)" stroke-width="2.901467415736988" stroke-linecap="round"/><path d="M969.1258351132274 294.7305461554788 l-0.8968292735517025 -10.248111625202 l10.495507663115859 -0.608605052344501" stroke="#5eead4" stroke-width="4.4437543239910156" stroke-linecap="round"/><path d="M1003.1412186846137 431.63896213984117 l-1.5772774703800678 -1.28293735999614 l11.189299447461963 -10.838766354136169" stroke="#5eead4" stroke-width="4.406971319811419" stroke-linecap="round"/><path d="M348.99848591536283 574.6350001706742 l-17.646814059466124 -2.6738858269527555 l10.692338487133384 -6.781257282011211" stroke="rgba(255,255,255,0.24)" stroke-width="2.428849955322221" stroke-linecap="round"/><path d="M212.82541390508413 509.10850323503837 l-13.228142593055964 6.448740544728935 l14.353661952540278 -10.340000870637596" stroke="rgba(255,255,255,0.24)" stroke-width="4.929531450616196" stroke-linecap="round"/><path d="M466.838646940887 261.6742899059318 l-5.870480295270681 -0.7150384085252881 l5.191496467217803 16.155542735941708" stroke="rgba(255,255,255,0.24)" stroke-width="2.1486760687548667" stroke-linecap="round"/><path d="M964.1874464973807 299.37137309229 l-12.197995562106371 -4.064568084664643 l-14.692679392173886 -11.666811215691268" stroke="rgba(255,255,255,0.24)" stroke-width="2.370072490768507" stroke-linecap="round"/><path d="M928.7974412366748 583.2371787889861 l17.691754538565874 16.221753383986652 l10.549927404150367 6.410840411670506" stroke="rgba(255,255,255,0.24)" stroke-width="3.3337471906561404" stroke-linecap="round"/><path d="M820.2143770083785 356.2567648268305 l-10.92061323300004 -1.2432123692706227 l2.4294868391007185 -1.9206988541409373" stroke="#5eead4" stroke-width="2.83557381038554" stroke-linecap="round"/><path d="M513.4478668496013 545.6870396225713 l2.725254211574793 10.264968554489315 l-14.718391651287675 -6.364912594668567" stroke="rgba(255,255,255,0.24)" stroke-width="3.5143825348932296" stroke-linecap="round"/><path d="M833.8151409849524 319.75598092889413 l-13.778991211205721 -10.847385180182755 l-7.318596677854657 -10.636759000830352" stroke="#5eead4" stroke-width="2.8265694670844823" stroke-linecap="round"/><path d="M526.7847968265414 488.73685458442196 l-15.408836256712675 -4.67175764311105 l3.107547601684928 11.170141627080739" stroke="rgba(255,255,255,0.24)" stroke-width="4.208206002833322" stroke-linecap="round"/><path d="M982.8205489739776 590.3974332637154 l-5.8553438521921635 -5.72712313849479 l12.856343982741237 -17.533680620603263" stroke="rgba(255,255,255,0.24)" stroke-width="4.424648205982521" stroke-linecap="round"/><path d="M237.22497921437025 469.82421522727236 l-12.42359059676528 3.360366295091808 l-5.794215286150575 8.299267237074673" stroke="rgba(255,255,255,0.24)" stroke-width="2.107646183343604" stroke-linecap="round"/><path d="M884.9832865223289 243.62164307152852 l-13.681104261428118 -11.572306615300477 l-9.17038600333035 -4.2637464283034205" stroke="#5eead4" stroke-width="3.479953459696844" stroke-linecap="round"/><path d="M230.60703705996275 528.4863224788569 l0.14369871094822884 14.595288123004138 l-9.538609514012933 14.497134645469487" stroke="#5eead4" stroke-width="4.267436352791265" stroke-linecap="round"/><path d="M512.9779141768813 584.156240967568 l14.013075705617666 3.337340268306434 l6.808549789711833 -6.162832888774574" stroke="rgba(255,255,255,0.24)" stroke-width="4.798683348344639" stroke-linecap="round"/><path d="M485.1914684101939 480.7349866419099 l-13.8184795640409 -4.197888155467808 l10.716466968879104 15.67982051242143" stroke="rgba(255,255,255,0.24)" stroke-width="4.2921144750434905" stroke-linecap="round"/><path d="M909.40086748451 240.3909669420682 l1.5473254434764385 -13.617750358767807 l-1.4174809623509645 15.999589783139527" stroke="rgba(255,255,255,0.24)" stroke-width="4.330590679543093" stroke-linecap="round"/><path d="M206.66064631193876 183.43162739416584 l4.254144597798586 10.535097713582218 l-17.979852536693215 10.45480774808675" stroke="rgba(255,255,255,0.24)" stroke-width="3.5235232014674693" stroke-linecap="round"/><path d="M501.77045699208975 598.7526703602634 l9.542555596679449 -17.14699011761695 l6.772920666262507 16.27045762259513" stroke="#5eead4" stroke-width="4.356482948409393" stroke-linecap="round"/><path d="M303.1188188120723 268.662273788359 l2.8516224659979343 5.383662234060466 l-15.12140347994864 -5.629014487378299" stroke="rgba(255,255,255,0.24)" stroke-width="2.2283098709303886" stroke-linecap="round"/><path d="M217.52686824649572 428.0803099623881 l-5.829541940242052 -5.799634379334748 l-11.916815148666501 -8.23688708525151" stroke="rgba(255,255,255,0.24)" stroke-width="4.675722337560728" stroke-linecap="round"/><path d="M580.0921089574695 528.1125642522238 l11.639786560088396 -7.7776218401268125 l-5.49499006010592 16.16864921618253" stroke="rgba(255,255,255,0.24)" stroke-width="2.7854265097994357" stroke-linecap="round"/><path d="M679.0321617946029 373.99995386367664 l-1.596494022756815 16.285217734985054 l-11.45122698135674 2.9073041947558522" stroke="rgba(255,255,255,0.24)" stroke-width="2.7937257171142846" stroke-linecap="round"/><path d="M455.5285147950053 177.44274658849463 l8.710250649601221 14.460974494926631 l-17.930385226383805 -17.970499481074512" stroke="rgba(255,255,255,0.24)" stroke-width="3.8736298319417983" stroke-linecap="round"/><path d="M278.5702731832862 403.29977955436334 l-16.73504625633359 5.6286233542487025 l-7.212822156026959 13.699186247773468" stroke="rgba(255,255,255,0.24)" stroke-width="3.1094646446872503" stroke-linecap="round"/><path d="M554.7979093715549 470.6626779749058 l3.8304097540676594 5.294336493127048 l15.949669321998954 -0.17335266899317503" stroke="rgba(255,255,255,0.24)" stroke-width="3.658981238724664" stroke-linecap="round"/><path d="M293.3470129594207 538.3050738996826 l-16.921162996441126 -10.33820414263755 l-10.75207674689591 -16.04867989104241" stroke="rgba(255,255,255,0.24)" stroke-width="2.1029653653968126" stroke-linecap="round"/><path d="M785.692040733993 264.50682496419176 l13.693440143018961 5.952505658380687 l2.9794631358236074 3.374603812582791" stroke="rgba(255,255,255,0.24)" stroke-width="2.98234681901522" stroke-linecap="round"/><path d="M320.49006666988134 181.25323313986883 l8.719972651451826 -3.0238951267674565 l-0.5374355781823397 -2.4573269365355372" stroke="#5eead4" stroke-width="3.522808811860159" stroke-linecap="round"/><path d="M173.42453192919493 512.8092634840868 l1.1682993359863758 -12.0493202554062 l5.700317015871406 -11.320709626190364" stroke="rgba(255,255,255,0.24)" stroke-width="2.5468973491806537" stroke-linecap="round"/><path d="M752.0489948615432 258.66876289015636 l-13.136041168123484 -12.426923719234765 l-0.7053122241050005 -5.331381353549659" stroke="rgba(255,255,255,0.24)" stroke-width="3.573630604194477" stroke-linecap="round"/><path d="M215.63088100403547 300.8786788373254 l-5.450273897498846 -0.6607872443273664 l-16.3894169870764 -1.8119663251563907" stroke="rgba(255,255,255,0.24)" stroke-width="3.105608293088153" stroke-linecap="round"/><path d="M849.9952330812812 195.73827814077958 l-12.762825060635805 -0.885607791133225 l-15.810089008882642 8.090936643071473" stroke="#5eead4" stroke-width="3.1036210500169545" stroke-linecap="round"/><path d="M317.3684610053897 399.8733657016419 l-9.191759537905455 -13.04638505447656 l2.4156444277614355 -2.960433374159038" stroke="#5eead4" stroke-width="2.6487598021049052" stroke-linecap="round"/><path d="M341.22209187597036 530.6855032569729 l17.86678161844611 5.171891036443412 l-1.5741170067340136 3.3878130884841084" stroke="rgba(255,255,255,0.24)" stroke-width="4.792025144444779" stroke-linecap="round"/><path d="M266.1165199801326 241.1762281297706 l2.8401436842978 14.66455281805247 l11.277915811166167 1.3140283869579434" stroke="rgba(255,255,255,0.24)" stroke-width="2.591436715098098" stroke-linecap="round"/><path d="M1012.5447567924857 359.1462719789706 l0.33072076365351677 -10.522432607598603 l-15.637716041877866 7.203840267844498" stroke="rgba(255,255,255,0.24)" stroke-width="4.336642570095137" stroke-linecap="round"/><path d="M946.7761809751391 530.769779549446 l-1.282481711357832 13.627849127165973 l16.066842963919044 -9.717035631649196" stroke="rgba(255,255,255,0.24)" stroke-width="4.9610285584349185" stroke-linecap="round"/><path d="M385.70028837770224 418.5435274220072 l-2.99228448048234 -15.82642784435302 l-8.309174688532948 -16.49998328369111" stroke="rgba(255,255,255,0.24)" stroke-width="2.6413276970852166" stroke-linecap="round"/><path d="M656.6704420372844 223.6111427634023 l-15.0617719553411 0.5344828767701983 l0.6089029368013144 -1.3406737698242068" stroke="rgba(255,255,255,0.24)" stroke-width="3.5847295459825546" stroke-linecap="round"/><path d="M352.34762217849493 532.4623220763169 l6.327270280569792 0.062212455086410046 l-9.314750270918012 -2.1962527809664607" stroke="rgba(255,255,255,0.24)" stroke-width="3.0034895830322057" stroke-linecap="round"/><path d="M220.54417621344328 548.007049949374 l17.675917971879244 7.860589320771396 l-8.06239596940577 -7.152528117410839" stroke="rgba(255,255,255,0.24)" stroke-width="2.2770385791081935" stroke-linecap="round"/><path d="M849.0675687417388 345.02481780713424 l10.019670691341162 -7.144048330374062 l9.451331136748195 -14.54115718882531" stroke="rgba(255,255,255,0.24)" stroke-width="2.3015919730532914" stroke-linecap="round"/><path d="M185.56413155049086 569.9888426600955 l-1.9699856601655483 14.117459963075817 l17.54348579607904 -0.8068345142528415" stroke="rgba(255,255,255,0.24)" stroke-width="3.027259246679023" stroke-linecap="round"/><path d="M572.3628136143088 525.2652858546935 l-15.63401635363698 9.427409428171813 l-16.82312528975308 -12.124479222111404" stroke="rgba(255,255,255,0.24)" stroke-width="3.1826532997656614" stroke-linecap="round"/><path d="M656.3189310953021 277.68747182330117 l7.275724668055773 -17.89845744241029 l-9.375880965963006 16.233577449806035" stroke="rgba(255,255,255,0.24)" stroke-width="3.1869998250622302" stroke-linecap="round"/><text x="92" y="672" fill="rgba(231,231,234,0.74)" font-family="ui-monospace,SFMono-Regular,Menlo,monospace" font-size="30">tierra-web</text>
</svg>