<?xml version="1.0" encoding="UTF-8"?>
<svg xmlns="http://www.w3.org/2000/svg" width="1200" height="760" viewBox="0 0 1200 760">
<rect width="1200" height="760" fill="#ffffff"/>
<rect x="72" y="58" width="1046" height="612" fill="#ffffff"/>
<text x="110" y="94" fill="#1f2937" font-family="Arial, Helvetica, sans-serif" font-size="30" font-weight="700">Research repo control plane</text><text x="110" y="126" fill="#6b7280" font-family="Arial, Helvetica, sans-serif" font-size="17">A minimal file contract for state, runs, artifacts, and handoff</text><rect x="92" y="158" width="1016" height="482" rx="6" fill="#f8fafc" stroke="#e5e7eb"/><rect x="130" y="205" width="260" height="112" rx="5" fill="#ffffff" stroke="#e5e7eb"/><text x="148" y="243" fill="#2563eb" font-family="ui-monospace,SFMono-Regular,Menlo,monospace" font-size="20" font-weight="700">STATE.md</text><text x="148" y="277" fill="#1f2937" font-family="Arial, Helvetica, sans-serif" font-size="17">canonical state</text><path d="M390 261 C422 261, 413 261, 445 261" fill="none" stroke="#2563eb" stroke-width="2.5" opacity="0.46"/><rect x="445" y="205" width="260" height="112" rx="5" fill="#ffffff" stroke="#e5e7eb"/><text x="463" y="243" fill="#2563eb" font-family="ui-monospace,SFMono-Regular,Menlo,monospace" font-size="20" font-weight="700">docs/journal/</text><text x="463" y="277" fill="#1f2937" font-family="Arial, Helvetica, sans-serif" font-size="17">run log</text><path d="M705 261 C737 261, 728 261, 760 261" fill="none" stroke="#2563eb" stroke-width="2.5" opacity="0.46"/><rect x="760" y="205" width="260" height="112" rx="5" fill="#ffffff" stroke="#e5e7eb"/><text x="778" y="243" fill="#2563eb" font-family="ui-monospace,SFMono-Regular,Menlo,monospace" font-size="20" font-weight="700">experiments/</text><text x="778" y="277" fill="#1f2937" font-family="Arial, Helvetica, sans-serif" font-size="17">runnable work</text><path d="M1020 261 C1052 261, 98 431, 130 431" fill="none" stroke="#2563eb" stroke-width="2.5" opacity="0.46"/><rect x="130" y="375" width="260" height="112" rx="5" fill="#ffffff" stroke="#e5e7eb"/><text x="148" y="413" fill="#2563eb" font-family="ui-monospace,SFMono-Regular,Menlo,monospace" font-size="20" font-weight="700">artifacts/</text><text x="148" y="447" fill="#1f2937" font-family="Arial, Helvetica, sans-serif" font-size="17">results</text><path d="M390 431 C422 431, 413 431, 445 431" fill="none" stroke="#2563eb" stroke-width="2.5" opacity="0.46"/><rect x="445" y="375" width="260" height="112" rx="5" fill="#ffffff" stroke="#e5e7eb"/><text x="463" y="413" fill="#2563eb" font-family="ui-monospace,SFMono-Regular,Menlo,monospace" font-size="20" font-weight="700">CHANGELOG.md</text><text x="463" y="447" fill="#1f2937" font-family="Arial, Helvetica, sans-serif" font-size="17">narrative</text><path d="M705 431 C737 431, 728 431, 760 431" fill="none" stroke="#2563eb" stroke-width="2.5" opacity="0.46"/><rect x="760" y="375" width="260" height="112" rx="5" fill="#ffffff" stroke="#e5e7eb"/><text x="778" y="413" fill="#2563eb" font-family="ui-monospace,SFMono-Regular,Menlo,monospace" font-size="20" font-weight="700">docs/WORKFLOW.md</text><text x="778" y="447" fill="#1f2937" font-family="Arial, Helvetica, sans-serif" font-size="17">handoff rules</text><rect x="424" y="555" width="350" height="46" rx="4" fill="#eff6ff" stroke="#bfdbfe"/><text x="599" y="584" text-anchor="middle" fill="#1f2937" font-family="Arial, Helvetica, sans-serif" font-size="17">read state -> run experiment -> write artifact -> update journal</text>
<text x="72" y="710" fill="#6b7280" font-family="Arial, Helvetica, sans-serif" font-size="22">agentic-research-template</text>
</svg>