<?xml version="1.0" encoding="UTF-8"?>
<svg xmlns="http://www.w3.org/2000/svg" width="1200" height="760" viewBox="0 0 1200 760">
<rect width="1200" height="760" fill="#ffffff"/>
<rect x="72" y="58" width="1046" height="612" fill="#ffffff"/>
<path d="M150 575.0 H1045" stroke="#e5e7eb" stroke-width="1"/><path d="M150 487.0 H1045" stroke="#e5e7eb" stroke-width="1"/><path d="M150 399.0 H1045" stroke="#e5e7eb" stroke-width="1"/><path d="M150 311.0 H1045" stroke="#e5e7eb" stroke-width="1"/><path d="M150 223.0 H1045" stroke="#e5e7eb" stroke-width="1"/><path d="M150 135.0 H1045" stroke="#e5e7eb" stroke-width="1"/><path d="M150.0 575 V135" stroke="#e5e7eb" stroke-width="1"/><path d="M329.0 575 V135" stroke="#e5e7eb" stroke-width="1"/><path d="M508.0 575 V135" stroke="#e5e7eb" stroke-width="1"/><path d="M687.0 575 V135" stroke="#e5e7eb" stroke-width="1"/><path d="M866.0 575 V135" stroke="#e5e7eb" stroke-width="1"/><path d="M1045.0 575 V135" stroke="#e5e7eb" stroke-width="1"/><path d="M150 575 H1045 M150 575 V135" stroke="#1f2937" stroke-width="2"/><rect x="180" y="567" width="84" height="8" fill="#0891b2" opacity="0.62"/><text x="222" y="615" text-anchor="middle" fill="#1f2937" font-family="Arial, Helvetica, sans-serif" font-size="15">noop</text><text x="222" y="553" text-anchor="middle" fill="#6b7280" font-family="Arial, Helvetica, sans-serif" font-size="17">0.0%</text><rect x="315" y="549.9069958847737" width="84" height="25.093004115226336" fill="#0891b2" opacity="0.62"/><text x="357" y="615" text-anchor="middle" fill="#1f2937" font-family="Arial, Helvetica, sans-serif" font-size="15">keep_last</text><text x="357" y="535.9069958847737" text-anchor="middle" fill="#6b7280" font-family="Arial, Helvetica, sans-serif" font-size="17">2.9%</text><rect x="450" y="362.1736625514403" width="84" height="212.82633744855966" fill="#0891b2" opacity="0.62"/><text x="492" y="615" text-anchor="middle" fill="#1f2937" font-family="Arial, Helvetica, sans-serif" font-size="15">pin_keep</text><text x="492" y="348.1736625514403" text-anchor="middle" fill="#6b7280" font-family="Arial, Helvetica, sans-serif" font-size="17">35.4%</text><rect x="585" y="510.2164609053498" width="84" height="64.78353909465021" fill="#0891b2" opacity="0.62"/><text x="627" y="615" text-anchor="middle" fill="#1f2937" font-family="Arial, Helvetica, sans-serif" font-size="15">bandit</text><text x="627" y="496.2164609053498" text-anchor="middle" fill="#6b7280" font-family="Arial, Helvetica, sans-serif" font-size="17">9.8%</text><rect x="720" y="536.0008230452675" width="84" height="38.999176954732505" fill="#0891b2" opacity="0.62"/><text x="762" y="615" text-anchor="middle" fill="#1f2937" font-family="Arial, Helvetica, sans-serif" font-size="15">reinforce</text><text x="762" y="522.0008230452675" text-anchor="middle" fill="#6b7280" font-family="Arial, Helvetica, sans-serif" font-size="17">5.3%</text><rect x="855" y="215" width="84" height="360" fill="#2563eb" opacity="0.9"/><text x="897" y="615" text-anchor="middle" fill="#1f2937" font-family="Arial, Helvetica, sans-serif" font-size="15">q_learning</text><text x="897" y="201" text-anchor="middle" fill="#6b7280" font-family="Arial, Helvetica, sans-serif" font-size="17">60.8%</text><text x="150" y="98" fill="#1f2937" font-family="Arial, Helvetica, sans-serif" font-size="28" font-weight="700">Toy context compaction success rates</text><text x="150" y="128" fill="#6b7280" font-family="Arial, Helvetica, sans-serif" font-size="17">Values parsed from docs/results_toy.md</text>
<text x="72" y="710" fill="#6b7280" font-family="Arial, Helvetica, sans-serif" font-size="22">rl-context-compaction</text>
</svg>